<?xml version="1.0" standalone="no"?>
<!DOCTYPE svg PUBLIC "-//W3C//DTD SVG 20010904//EN"
 "http://www.w3.org/TR/2001/REC-SVG-20010904/DTD/svg10.dtd">
<svg version="1.0" xmlns="http://www.w3.org/2000/svg"
 width="512.000000pt" height="512.000000pt" viewBox="0 0 512.000000 512.000000"
 preserveAspectRatio="xMidYMid meet">

<g transform="translate(0.000000,512.000000) scale(0.100000,-0.100000)"
fill="currentColor" stroke="none">
<path d="M1819 4667 c-64 -34 -102 -92 -107 -166 -2 -32 1 -75 7 -94 14 -42
72 -104 115 -123 27 -11 -26 -13 -372 -14 -262 0 -419 -4 -447 -11 -27 -7 -63
-28 -90 -51 -112 -98 -88 -275 46 -342 l53 -26 1536 0 1536 0 53 26 c127 64
155 219 59 328 -65 74 -76 76 -547 76 -349 1 -402 3 -375 14 43 19 101 81 115
123 30 92 -7 198 -88 253 l-37 25 -706 3 -706 2 -45 -23z"/>
<path d="M1230 3621 c-78 -25 -132 -75 -150 -139 -8 -26 -10 -419 -8 -1297 l3
-1260 26 -67 c74 -190 207 -323 397 -397 l67 -26 985 0 985 0 70 22 c188 60
337 204 414 401 l26 67 3 1260 c2 878 0 1271 -8 1297 -42 147 -250 191 -357
76 -56 -59 -53 4 -53 -1298 0 -887 -3 -1213 -12 -1248 -16 -64 -86 -134 -150
-150 -67 -17 -1749 -17 -1816 0 -64 16 -134 86 -150 150 -9 35 -12 361 -12
1248 0 1302 3 1239 -53 1298 -47 51 -149 82 -207 63z"/>
<path d="M2045 3393 c-47 -24 -86 -64 -106 -108 -18 -38 -19 -85 -19 -930 0
-602 4 -902 11 -929 15 -54 83 -119 142 -135 95 -27 195 13 244 97 l28 47 0
910 0 910 -22 40 c-27 50 -58 80 -105 100 -48 19 -134 19 -173 -2z"/>
<path d="M2900 3394 c-46 -20 -77 -50 -103 -99 l-22 -40 0 -910 0 -910 28 -47
c49 -84 149 -124 244 -97 59 16 124 78 141 135 9 31 12 255 12 928 0 970 3
926 -58 989 -61 64 -162 86 -242 51z"/>
</g>
</svg>
