<?xml version="1.0" standalone="no"?>
<!DOCTYPE svg PUBLIC "-//W3C//DTD SVG 20010904//EN"
 "http://www.w3.org/TR/2001/REC-SVG-20010904/DTD/svg10.dtd">
<svg version="1.0" xmlns="http://www.w3.org/2000/svg"
 width="512.000000pt" height="512.000000pt" viewBox="0 0 512.000000 512.000000"
 preserveAspectRatio="xMidYMid meet">

<g transform="translate(0.000000,512.000000) scale(0.100000,-0.100000)"
fill="currentColor" stroke="none">
<path d="M2349 4835 c-347 -66 -643 -266 -827 -559 -241 -383 -250 -867 -24
-1260 251 -436 748 -676 1245 -601 480 72 880 432 1002 901 89 344 30 696
-168 992 -171 256 -417 428 -726 509 -121 32 -380 41 -502 18z m436 -329 c265
-73 480 -254 595 -499 60 -128 83 -237 83 -387 -1 -133 -18 -219 -67 -340
-101 -252 -339 -459 -611 -532 -115 -31 -336 -30 -450 1 -274 74 -510 279
-611 531 -49 121 -66 207 -67 340 -1 243 81 453 242 624 132 139 299 233 481
272 87 18 323 12 405 -10z"/>
<path d="M2385 2074 c-16 -2 -73 -9 -125 -15 -296 -33 -637 -151 -887 -307
-357 -221 -617 -537 -732 -889 -71 -214 -92 -463 -46 -525 30 -40 86 -68 137
-68 93 0 158 81 158 196 0 34 7 99 15 145 54 309 235 583 532 804 104 77 348
201 481 244 371 120 761 134 1144 40 142 -35 179 -34 228 8 81 68 81 178 1
246 -33 28 -211 75 -386 102 -95 15 -456 28 -520 19z"/>
<path d="M4195 2017 c-33 -12 -83 -38 -110 -56 -28 -19 -240 -224 -471 -455
-498 -498 -470 -458 -509 -716 -41 -275 -32 -344 59 -436 57 -57 121 -84 197
-84 26 0 125 11 221 25 269 39 231 12 731 512 229 230 432 439 451 466 65 91
81 141 81 253 0 96 -1 103 -39 180 -55 111 -179 235 -290 290 -71 35 -87 38
-170 41 -76 3 -101 -1 -151 -20z m188 -308 c32 -16 116 -100 133 -131 24 -46
17 -82 -24 -135 -62 -77 -67 -80 -110 -57 -49 25 -162 139 -187 187 l-20 39
58 54 c61 57 100 68 150 43z m-399 -387 c36 -49 103 -115 166 -164 l35 -27
-240 -241 c-132 -133 -248 -245 -257 -251 -15 -8 -279 -51 -285 -46 -1 2 7 65
18 142 l20 140 247 248 c136 136 250 247 254 247 3 0 22 -22 42 -48z"/>
</g>
</svg>
