<?xml version="1.0" standalone="no"?>
<!DOCTYPE svg PUBLIC "-//W3C//DTD SVG 20010904//EN"
 "http://www.w3.org/TR/2001/REC-SVG-20010904/DTD/svg10.dtd">
<svg version="1.0" xmlns="http://www.w3.org/2000/svg"
 width="512.000000pt" height="512.000000pt" viewBox="0 0 512.000000 512.000000"
 preserveAspectRatio="xMidYMid meet">

<g transform="translate(0.000000,512.000000) scale(0.100000,-0.100000)"
fill="currentColor" stroke="none">
<path d="M1392 4715 c-1404 -265 -1333 -248 -1372 -325 -20 -39 -20 -66 -20
-1830 0 -1764 0 -1791 20 -1830 39 -77 -35 -60 1394 -328 l1313 -246 47 18
c28 11 57 32 74 54 l27 35 3 269 3 268 1068 2 1068 3 37 29 c71 54 66 -78 64
1740 -3 1643 -3 1645 -24 1672 -11 15 -33 37 -48 48 -27 21 -34 21 -1097 24
l-1069 2 0 256 c0 217 -3 261 -16 291 -25 51 -76 85 -132 89 -30 2 -503 -83
-1340 -241z m1166 -3178 l-3 -1023 -995 187 c-547 102 -1050 196 -1117 209
l-123 23 0 1627 0 1628 123 22 c67 13 570 107 1117 210 l995 187 3 -1024 c1
-562 1 -1483 0 -2046z m2242 1023 l0 -1440 -960 0 -960 0 0 160 0 159 268 3
269 3 37 29 c90 68 86 190 -8 260 -26 20 -43 21 -297 24 l-269 3 0 159 0 159
268 3 269 3 37 29 c90 68 86 190 -8 260 -26 20 -43 21 -297 24 l-269 3 0 159
0 159 268 3 269 3 37 29 c90 68 86 190 -8 260 -26 20 -43 21 -297 24 l-269 3
0 159 0 159 268 3 269 3 37 29 c90 68 86 190 -8 260 -26 20 -43 21 -297 24
l-269 3 0 159 0 160 960 0 960 0 0 -1440z"/>
<path d="M2010 3502 c-23 -12 -96 -96 -218 -253 -101 -129 -212 -271 -248
-317 l-65 -83 -209 239 c-213 243 -245 272 -309 272 -111 0 -193 -125 -147
-221 9 -19 76 -102 149 -185 72 -83 174 -199 224 -257 l93 -105 -225 -289
c-123 -158 -232 -303 -241 -322 -64 -133 106 -277 231 -195 15 10 119 136 232
281 112 144 208 265 213 268 5 3 117 -118 249 -268 166 -189 252 -280 277
-292 125 -59 268 80 211 207 -7 15 -127 158 -267 318 -140 160 -256 296 -258
300 -2 5 106 150 240 322 300 386 290 371 295 422 14 120 -122 215 -227 158z"/>
<path d="M3935 3666 c-68 -30 -105 -106 -90 -183 8 -47 71 -109 117 -118 18
-4 119 -5 224 -3 l191 3 37 29 c90 68 86 190 -8 260 -25 19 -43 21 -234 23
-157 2 -214 0 -237 -11z"/>
<path d="M3935 3026 c-68 -30 -105 -106 -90 -183 8 -47 71 -109 117 -118 18
-4 119 -5 224 -3 l191 3 37 29 c90 68 86 190 -8 260 -25 19 -43 21 -234 23
-157 2 -214 0 -237 -11z"/>
<path d="M3935 2386 c-68 -30 -105 -106 -90 -183 8 -47 71 -109 117 -118 18
-4 119 -5 224 -3 l191 3 37 29 c90 68 86 190 -8 260 -25 19 -43 21 -234 23
-157 2 -214 0 -237 -11z"/>
<path d="M3935 1746 c-68 -30 -105 -106 -90 -183 8 -47 71 -109 117 -118 18
-4 119 -5 224 -3 l191 3 37 29 c90 68 86 190 -8 260 -25 19 -43 21 -234 23
-157 2 -214 0 -237 -11z"/>
</g>
</svg>
