<?xml version="1.0" standalone="no"?>
<!DOCTYPE svg PUBLIC "-//W3C//DTD SVG 20010904//EN"
 "http://www.w3.org/TR/2001/REC-SVG-20010904/DTD/svg10.dtd">
<svg version="1.0" xmlns="http://www.w3.org/2000/svg"
 width="512.000000pt" height="512.000000pt" viewBox="0 0 512.000000 512.000000"
 preserveAspectRatio="xMidYMid meet">

<g transform="translate(0.000000,512.000000) scale(0.100000,-0.100000)"
fill="currentColor" stroke="none">
<path d="M2464 5102 c-77 -27 -128 -73 -166 -150 l-33 -67 0 -995 0 -995 28
-57 c111 -225 423 -225 534 0 l28 57 0 995 0 995 -33 68 c-68 137 -215 198
-358 149z"/>
<path d="M1327 4795 c-172 -61 -554 -377 -752 -620 -163 -200 -332 -499 -420
-739 -155 -423 -193 -899 -110 -1352 137 -742 608 -1391 1282 -1768 505 -282
1120 -379 1709 -271 508 94 972 342 1341 716 406 411 641 893 725 1484 20 140
17 504 -5 660 -22 156 -81 394 -132 531 -90 244 -257 539 -420 739 -202 248
-582 561 -757 622 -91 32 -219 -2 -297 -79 -107 -104 -111 -311 -8 -420 14
-15 59 -49 99 -74 187 -121 382 -295 503 -449 364 -466 503 -1052 383 -1615
-63 -298 -203 -592 -395 -830 -71 -88 -233 -246 -318 -311 -465 -356 -1051
-487 -1615 -362 -588 130 -1080 522 -1339 1065 -123 257 -178 484 -188 773
-11 318 50 614 187 902 163 342 402 608 747 831 122 80 163 150 163 279 0 99
-27 160 -98 224 -80 72 -193 97 -285 64z"/>
</g>
</svg>
