<?xml version="1.0" standalone="no"?>
<!DOCTYPE svg PUBLIC "-//W3C//DTD SVG 20010904//EN"
 "http://www.w3.org/TR/2001/REC-SVG-20010904/DTD/svg10.dtd">
<svg version="1.0" xmlns="http://www.w3.org/2000/svg"
 width="512.000000pt" height="512.000000pt" viewBox="0 0 512.000000 512.000000"
 preserveAspectRatio="xMidYMid meet">

<g transform="translate(0.000000,512.000000) scale(0.100000,-0.100000)"
fill="currentColor" stroke="none">
<path d="M142 5101 c-66 -23 -89 -43 -118 -106 l-24 -50 0 -2165 c0 -1480 3
-2177 11 -2203 13 -48 63 -105 112 -127 21 -10 530 -116 1132 -236 1057 -211
1095 -218 1142 -206 59 16 110 56 137 108 18 33 22 61 24 176 l4 138 559 0
c531 0 562 1 597 19 20 11 49 32 64 48 60 63 58 40 58 783 0 593 -2 685 -16
718 -33 79 -110 132 -194 132 -88 0 -152 -38 -193 -115 -22 -39 -22 -49 -25
-603 l-3 -562 -424 0 -425 0 0 1721 c0 1261 -3 1732 -11 1760 -15 49 -59 102
-102 123 -19 8 -194 64 -388 122 -195 58 -356 108 -358 110 -2 2 381 4 852 4
l857 0 0 -536 c0 -377 3 -549 12 -582 16 -66 87 -135 154 -151 99 -24 194 21
238 112 l27 53 -3 695 -3 695 -28 42 c-15 23 -46 54 -69 69 l-42 28 -1750 2
c-1671 2 -1753 2 -1804 -16z"/>
<path d="M4206 3618 c-58 -16 -129 -91 -145 -151 -13 -52 -7 -104 17 -152 8
-16 80 -96 160 -177 l146 -147 -620 -3 c-612 -3 -619 -3 -659 -25 -76 -41
-115 -105 -115 -190 1 -91 65 -180 147 -202 25 -7 253 -11 647 -11 l610 0
-161 -162 c-147 -149 -161 -167 -172 -213 -24 -101 20 -195 114 -240 47 -24
64 -27 111 -22 30 3 69 15 87 26 17 11 188 177 378 368 366 369 369 373 369
464 -1 77 -29 112 -373 457 -183 183 -350 344 -372 357 -48 28 -116 38 -169
23z"/>
</g>
</svg>
